# xmcd
#
# Track frame offsets: 
#        150
#        17263
#        30150
#        46941
#        66785
#        87118
#        102946
#        115567
#        139489
#        151079
#        163151
#        173292
#
# Disc length: 2454 seconds
#
# Revision: 0
# Processed by: cddbd v1.5.1PL0 Copyright (c) Steve Scherf et al.
# Submitted via: ExactAudioCopy v0.95a3
#
DISCID=7e09940c
DTITLE=Rosie Flores - Bandera Highway
DYEAR=1900
DGENRE=Country
TTITLE0=More to Offer
TTITLE1=Blue Highway
TTITLE2=West Texas Plains
TTITLE3=Love and Danger
TTITLE4=Bandera Highway
TTITLE5=Honky Tonk Moon 
TTITLE6=Blues Keep Callin'
TTITLE7=His Rockin' Little Angel
TTITLE8=Boxcars
TTITLE9=Poor Girl's Town
TTITLE10=YOu Tear Me Up
TTITLE11=Don't Let Our Love Die
EXTD=
EXTT0=
EXTT1=
EXTT2=
EXTT3=
EXTT4=
EXTT5=
EXTT6=
EXTT7=
EXTT8=
EXTT9=
EXTT10=
EXTT11=
PLAYORDER=
